<svg width="195" height="40" viewBox="0 0 195 40" fill="none" xmlns="http://www.w3.org/2000/svg">
<path d="M24.1085 39.6191L23.2487 26.3095L34.3916 33.7725L39 25.6561L26.9974 19.8095L39 13.963L34.3916 5.84656L23.2487 13.3095L24.1085 0H14.8572L15.7513 13.3095L4.60847 5.84656L0 13.963L11.9683 19.8095L0 25.6561L4.60847 33.7725L15.7513 26.3095L14.8572 39.6191H24.1085Z" fill="white"/>
<path d="M64.3409 19.642L61.017 19.8466C60.9602 19.5625 60.8381 19.3068 60.6506 19.0795C60.4631 18.8466 60.2159 18.6619 59.9091 18.5256C59.608 18.3835 59.2472 18.3125 58.8267 18.3125C58.2642 18.3125 57.7898 18.4318 57.4034 18.6705C57.017 18.9034 56.8239 19.2159 56.8239 19.608C56.8239 19.9205 56.9489 20.1847 57.1989 20.4006C57.4489 20.6165 57.8778 20.7898 58.4858 20.9205L60.8551 21.3977C62.1278 21.6591 63.0767 22.0795 63.7017 22.6591C64.3267 23.2386 64.6392 24 64.6392 24.9432C64.6392 25.8011 64.3864 26.554 63.8807 27.2017C63.3807 27.8494 62.6932 28.3551 61.8182 28.7188C60.9489 29.0767 59.946 29.2557 58.8097 29.2557C57.0767 29.2557 55.696 28.8949 54.6676 28.1733C53.6449 27.446 53.0455 26.4574 52.8693 25.2074L56.4403 25.0199C56.5483 25.5483 56.8097 25.9517 57.2244 26.2301C57.6392 26.5028 58.1705 26.6392 58.8182 26.6392C59.4545 26.6392 59.9659 26.517 60.3523 26.2727C60.7443 26.0227 60.9432 25.7017 60.9489 25.3097C60.9432 24.9801 60.804 24.7102 60.5312 24.5C60.2585 24.2841 59.8381 24.1193 59.2699 24.0057L57.0028 23.554C55.7244 23.2983 54.7727 22.8551 54.1477 22.2244C53.5284 21.5937 53.2188 20.7898 53.2188 19.8125C53.2188 18.9716 53.446 18.2472 53.9006 17.6392C54.3608 17.0312 55.0057 16.5625 55.8352 16.233C56.6705 15.9034 57.6477 15.7386 58.767 15.7386C60.4205 15.7386 61.7216 16.0881 62.6705 16.7869C63.625 17.4858 64.1818 18.4375 64.3409 19.642ZM66.9254 29V15.9091H70.3857V18.2188H70.5391C70.8118 17.4517 71.2663 16.8466 71.9027 16.4034C72.5391 15.9602 73.3004 15.7386 74.1868 15.7386C75.0845 15.7386 75.8487 15.9631 76.4794 16.4119C77.1101 16.8551 77.5305 17.4574 77.7408 18.2188H77.8771C78.1442 17.4688 78.6271 16.8693 79.326 16.4205C80.0305 15.9659 80.8629 15.7386 81.8232 15.7386C83.0447 15.7386 84.0362 16.1278 84.7976 16.9062C85.5646 17.679 85.9482 18.7756 85.9482 20.196V29H82.326V20.9119C82.326 20.1847 82.1328 19.6392 81.7464 19.2756C81.3601 18.9119 80.8771 18.7301 80.2976 18.7301C79.6385 18.7301 79.1243 18.9403 78.755 19.3608C78.3857 19.7756 78.201 20.3239 78.201 21.0057V29H74.6811V20.8352C74.6811 20.1932 74.4964 19.6818 74.1271 19.3011C73.7635 18.9205 73.2834 18.7301 72.6868 18.7301C72.2834 18.7301 71.9197 18.8324 71.5959 19.0369C71.2777 19.2358 71.0249 19.517 70.8374 19.8807C70.6499 20.2386 70.5561 20.6591 70.5561 21.142V29H66.9254ZM92.549 29.2472C91.7138 29.2472 90.9695 29.1023 90.3161 28.8125C89.6626 28.517 89.1456 28.0824 88.7649 27.5085C88.3899 26.929 88.2024 26.2074 88.2024 25.3438C88.2024 24.6165 88.3359 24.0057 88.603 23.5114C88.87 23.017 89.2337 22.6193 89.6939 22.3182C90.1541 22.017 90.6768 21.7898 91.2621 21.6364C91.853 21.483 92.4723 21.375 93.12 21.3125C93.8814 21.233 94.495 21.1591 94.9609 21.0909C95.4268 21.017 95.7649 20.9091 95.9751 20.767C96.1854 20.625 96.2905 20.4148 96.2905 20.1364V20.0852C96.2905 19.5455 96.12 19.1278 95.7791 18.8324C95.4439 18.5369 94.9666 18.3892 94.3473 18.3892C93.6939 18.3892 93.174 18.5341 92.7876 18.8239C92.4013 19.108 92.1456 19.4659 92.0206 19.8977L88.6626 19.625C88.8331 18.8295 89.1683 18.142 89.6683 17.5625C90.1683 16.9773 90.8132 16.5284 91.603 16.2159C92.3984 15.8977 93.3189 15.7386 94.3643 15.7386C95.0916 15.7386 95.7876 15.8239 96.4524 15.9943C97.1229 16.1648 97.7166 16.429 98.2337 16.7869C98.7564 17.1449 99.1683 17.6051 99.4695 18.1676C99.7706 18.7244 99.9212 19.392 99.9212 20.1705V29H96.478V27.1847H96.3757C96.1655 27.5938 95.8842 27.9545 95.532 28.267C95.1797 28.5739 94.7564 28.8153 94.2621 28.9915C93.7678 29.1619 93.1967 29.2472 92.549 29.2472ZM93.5888 26.7415C94.1229 26.7415 94.5945 26.6364 95.0036 26.4261C95.4126 26.2102 95.7337 25.9205 95.9666 25.5568C96.1996 25.1932 96.3161 24.7812 96.3161 24.321V22.9318C96.2024 23.0057 96.0462 23.0739 95.8473 23.1364C95.6541 23.1932 95.4354 23.2472 95.1911 23.2983C94.9467 23.3437 94.7024 23.3864 94.4581 23.4261C94.2138 23.4602 93.9922 23.4915 93.7933 23.5199C93.3672 23.5824 92.995 23.6818 92.6768 23.8182C92.3587 23.9545 92.1115 24.1392 91.9354 24.3722C91.7592 24.5994 91.6712 24.8835 91.6712 25.2244C91.6712 25.7188 91.8501 26.0966 92.2081 26.358C92.5717 26.6136 93.032 26.7415 93.5888 26.7415ZM106.369 11.5455V29H102.738V11.5455H106.369ZM112.908 11.5455V29H109.277V11.5455H112.908ZM121.782 29.2557C120.435 29.2557 119.276 28.983 118.305 28.4375C117.339 27.8864 116.594 27.108 116.072 26.1023C115.549 25.0909 115.288 23.8949 115.288 22.5142C115.288 21.1676 115.549 19.9858 116.072 18.9688C116.594 17.9517 117.33 17.1591 118.279 16.5909C119.234 16.0227 120.353 15.7386 121.637 15.7386C122.501 15.7386 123.305 15.8778 124.049 16.1562C124.799 16.429 125.452 16.8409 126.009 17.392C126.572 17.9432 127.009 18.6364 127.322 19.4716C127.634 20.3011 127.79 21.2727 127.79 22.3864V23.3835H116.737V21.1335H124.373C124.373 20.6108 124.259 20.1477 124.032 19.7443C123.805 19.3409 123.489 19.0256 123.086 18.7983C122.688 18.5653 122.225 18.4489 121.697 18.4489C121.146 18.4489 120.657 18.5767 120.231 18.8324C119.81 19.0824 119.481 19.4205 119.242 19.8466C119.004 20.267 118.881 20.7358 118.876 21.2528V23.392C118.876 24.0398 118.995 24.5994 119.234 25.071C119.478 25.5426 119.822 25.9062 120.265 26.1619C120.708 26.4176 121.234 26.5455 121.842 26.5455C122.245 26.5455 122.614 26.4886 122.95 26.375C123.285 26.2614 123.572 26.0909 123.81 25.8636C124.049 25.6364 124.231 25.358 124.356 25.0284L127.714 25.25C127.543 26.0568 127.194 26.7614 126.665 27.3636C126.143 27.9602 125.467 28.4261 124.637 28.7614C123.813 29.0909 122.862 29.2557 121.782 29.2557ZM141.052 19.642L137.728 19.8466C137.671 19.5625 137.549 19.3068 137.362 19.0795C137.174 18.8466 136.927 18.6619 136.62 18.5256C136.319 18.3835 135.958 18.3125 135.538 18.3125C134.975 18.3125 134.501 18.4318 134.114 18.6705C133.728 18.9034 133.535 19.2159 133.535 19.608C133.535 19.9205 133.66 20.1847 133.91 20.4006C134.16 20.6165 134.589 20.7898 135.197 20.9205L137.566 21.3977C138.839 21.6591 139.788 22.0795 140.413 22.6591C141.038 23.2386 141.35 24 141.35 24.9432C141.35 25.8011 141.097 26.554 140.592 27.2017C140.092 27.8494 139.404 28.3551 138.529 28.7188C137.66 29.0767 136.657 29.2557 135.521 29.2557C133.788 29.2557 132.407 28.8949 131.379 28.1733C130.356 27.446 129.756 26.4574 129.58 25.2074L133.151 25.0199C133.259 25.5483 133.521 25.9517 133.935 26.2301C134.35 26.5028 134.881 26.6392 135.529 26.6392C136.165 26.6392 136.677 26.517 137.063 26.2727C137.455 26.0227 137.654 25.7017 137.66 25.3097C137.654 24.9801 137.515 24.7102 137.242 24.5C136.969 24.2841 136.549 24.1193 135.981 24.0057L133.714 23.554C132.435 23.2983 131.484 22.8551 130.859 22.2244C130.239 21.5937 129.93 20.7898 129.93 19.8125C129.93 18.9716 130.157 18.2472 130.612 17.6392C131.072 17.0312 131.717 16.5625 132.546 16.233C133.381 15.9034 134.359 15.7386 135.478 15.7386C137.131 15.7386 138.433 16.0881 139.381 16.7869C140.336 17.4858 140.893 18.4375 141.052 19.642ZM150.599 15.9091V18.6364H142.716V15.9091H150.599ZM144.506 12.7727H148.136V24.9773C148.136 25.3125 148.188 25.5739 148.29 25.7614C148.392 25.9432 148.534 26.071 148.716 26.1449C148.903 26.2187 149.119 26.2557 149.364 26.2557C149.534 26.2557 149.705 26.2415 149.875 26.2131C150.045 26.179 150.176 26.1534 150.267 26.1364L150.838 28.8381C150.656 28.8949 150.401 28.9602 150.071 29.0341C149.741 29.1136 149.341 29.1619 148.869 29.179C147.994 29.2131 147.227 29.0966 146.568 28.8295C145.915 28.5625 145.406 28.1477 145.043 27.5852C144.679 27.0227 144.5 26.3125 144.506 25.4545V12.7727ZM155.087 29.2216C154.524 29.2216 154.041 29.0227 153.638 28.625C153.24 28.2216 153.041 27.7386 153.041 27.1761C153.041 26.6193 153.24 26.142 153.638 25.7443C154.041 25.3466 154.524 25.1477 155.087 25.1477C155.632 25.1477 156.109 25.3466 156.518 25.7443C156.928 26.142 157.132 26.6193 157.132 27.1761C157.132 27.5511 157.036 27.8949 156.842 28.2074C156.655 28.5142 156.408 28.7614 156.101 28.9489C155.794 29.1307 155.456 29.2216 155.087 29.2216ZM163.846 29.2472C163.011 29.2472 162.266 29.1023 161.613 28.8125C160.96 28.517 160.442 28.0824 160.062 27.5085C159.687 26.929 159.499 26.2074 159.499 25.3438C159.499 24.6165 159.633 24.0057 159.9 23.5114C160.167 23.017 160.531 22.6193 160.991 22.3182C161.451 22.017 161.974 21.7898 162.559 21.6364C163.15 21.483 163.769 21.375 164.417 21.3125C165.178 21.233 165.792 21.1591 166.258 21.0909C166.724 21.017 167.062 20.9091 167.272 20.767C167.482 20.625 167.587 20.4148 167.587 20.1364V20.0852C167.587 19.5455 167.417 19.1278 167.076 18.8324C166.741 18.5369 166.263 18.3892 165.644 18.3892C164.991 18.3892 164.471 18.5341 164.085 18.8239C163.698 19.108 163.442 19.4659 163.317 19.8977L159.96 19.625C160.13 18.8295 160.465 18.142 160.965 17.5625C161.465 16.9773 162.11 16.5284 162.9 16.2159C163.695 15.8977 164.616 15.7386 165.661 15.7386C166.388 15.7386 167.085 15.8239 167.749 15.9943C168.42 16.1648 169.013 16.429 169.531 16.7869C170.053 17.1449 170.465 17.6051 170.766 18.1676C171.067 18.7244 171.218 19.392 171.218 20.1705V29H167.775V27.1847H167.673C167.462 27.5938 167.181 27.9545 166.829 28.267C166.477 28.5739 166.053 28.8153 165.559 28.9915C165.065 29.1619 164.494 29.2472 163.846 29.2472ZM164.886 26.7415C165.42 26.7415 165.891 26.6364 166.3 26.4261C166.71 26.2102 167.031 25.9205 167.263 25.5568C167.496 25.1932 167.613 24.7812 167.613 24.321V22.9318C167.499 23.0057 167.343 23.0739 167.144 23.1364C166.951 23.1932 166.732 23.2472 166.488 23.2983C166.244 23.3437 165.999 23.3864 165.755 23.4261C165.511 23.4602 165.289 23.4915 165.09 23.5199C164.664 23.5824 164.292 23.6818 163.974 23.8182C163.656 23.9545 163.408 24.1392 163.232 24.3722C163.056 24.5994 162.968 24.8835 162.968 25.2244C162.968 25.7188 163.147 26.0966 163.505 26.358C163.869 26.6136 164.329 26.7415 164.886 26.7415ZM174.035 29V15.9091H177.665V29H174.035ZM175.859 14.2216C175.319 14.2216 174.856 14.0426 174.469 13.6847C174.089 13.321 173.898 12.8864 173.898 12.3807C173.898 11.8807 174.089 11.4517 174.469 11.0938C174.856 10.7301 175.319 10.5483 175.859 10.5483C176.398 10.5483 176.859 10.7301 177.239 11.0938C177.626 11.4517 177.819 11.8807 177.819 12.3807C177.819 12.8864 177.626 13.321 177.239 13.6847C176.859 14.0426 176.398 14.2216 175.859 14.2216Z" fill="white"/>
</svg>
